<svg width="126" height="27" viewBox="0 0 126 27" fill="none" xmlns="http://www.w3.org/2000/svg"><path d="M11.7033 13.28 11.7313 12.72C11.7127 12.2533 11.61 11.8053 11.4233 11.376 11.2367 10.9467 10.9753 10.5827 10.6393 10.284 10.322 9.96671 9.94869 9.71471 9.51935 9.52804 9.09002 9.34137 8.63269 9.24804 8.14735 9.24804 7.68069 9.24804 7.23269 9.34137 6.80335 9.52804 6.39269 9.69604 6.02869 9.93871 5.71135 10.256 5.39402 10.5547 5.13269 10.9093 4.92735 11.32 4.74069 11.712 4.63802 12.1413 4.61935 12.608V20H.615356V.540039H4.61935V6.67204C4.99269 6.16804 5.50602 5.79471 6.15935 5.55204 6.83135 5.30937 7.49402 5.18804 8.14735 5.18804 9.19269 5.18804 10.1727 5.38404 11.0873 5.77604 12.002 6.16804 12.8047 6.70937 13.4953 7.40004 14.186 8.07204 14.7273 8.86537 15.1193 9.78004 15.5113 10.6947 15.7073 11.6747 15.7073 12.72V20h-4.004v-.532V13.28zM24.4162 15.1l4.48-9.51996H31.9762V8.40804L26.4322 20 25.0042 23.388C24.6309 24.1907 24.1362 24.8907 23.5202 25.488 22.9042 26.0853 22.2322 26.5613 21.5042 26.916L20.1042 23.108C20.4216 22.9213 20.7109 22.7067 20.9722 22.464 21.2336 22.2213 21.4389 21.9413 21.5882 21.624L22.4282 20 16.8842 8.40804V5.58004H19.9642L24.4162 15.1zM48.2191 12.72C48.2191 13.7653 48.0231 14.7547 47.6311 15.688 47.2391 16.6027 46.6977 17.4053 46.0071 18.096 45.3164 18.7867 44.5137 19.3373 43.5991 19.748 42.6844 20.14 41.7044 20.336 40.6591 20.336 40.3417 20.336 40.0057 20.308 39.6511 20.252 39.2964 20.2147 38.9511 20.1307 38.6151 20 38.2977 19.8693 37.9991 19.692 37.7191 19.468 37.4577 19.244 37.2617 18.964 37.1311 18.628V25.04H33.1271V5.58004H37.1311V6.67204C37.5044 6.16804 38.0177 5.79471 38.6711 5.55204 39.3431 5.30937 40.0057 5.18804 40.6591 5.18804 41.7044 5.18804 42.6844 5.38404 43.5991 5.77604 44.5137 6.16804 45.3164 6.70937 46.0071 7.40004 46.6977 8.07204 47.2391 8.86537 47.6311 9.78004 48.0231 10.6947 48.2191 11.6747 48.2191 12.72zM40.6591 9.24804C40.1924 9.24804 39.7444 9.34137 39.3151 9.52804 38.9044 9.69604 38.5404 9.93871 38.2231 10.256 37.9057 10.5547 37.6444 10.9093 37.4391 11.32 37.2524 11.712 37.1497 12.1413 37.1311 12.608V12.916C37.1497 13.3827 37.2524 13.8213 37.4391 14.232 37.6444 14.624 37.9057 14.9787 38.2231 15.296 38.5404 15.5947 38.9044 15.8373 39.3151 16.024 39.7444 16.192 40.1924 16.276 40.6591 16.276 41.1257 16.276 41.5644 16.192 41.9751 16.024 42.4044 15.856 42.7777 15.6227 43.0951 15.324 43.4124 15.0253 43.6644 14.68 43.8511 14.288 44.0564 13.8773 44.1777 13.448 44.2151 13L44.2431 12.776 44.2151 12.552C44.1777 12.104 44.0564 11.684 43.8511 11.292 43.6644 10.8813 43.4124 10.5267 43.0951 10.228 42.7777 9.92937 42.4044 9.69604 41.9751 9.52804 41.5644 9.34137 41.1257 9.24804 40.6591 9.24804zm16.2408-4.06C57.9453 5.18804 58.9253 5.38404 59.8399 5.77604 60.7733 6.16804 61.5759 6.70937 62.2479 7.40004 62.9386 8.07204 63.4799 8.86537 63.8719 9.78004 64.2826 10.6947 64.4879 11.6747 64.4879 12.72 64.4879 13.7653 64.2919 14.7547 63.8999 15.688 63.5266 16.6027 62.9946 17.4053 62.3039 18.096 61.6319 18.768 60.8386 19.3093 59.9239 19.72 59.0093 20.1307 58.0293 20.336 56.9839 20.336 55.9386 20.336 54.9493 20.14 54.0159 19.748 53.1013 19.356 52.2986 18.824 51.6079 18.152 50.9173 17.4613 50.3666 16.6587 49.9559 15.744 49.5639 14.8293 49.3679 13.8493 49.3679 12.804 49.3679 11.7587 49.5546 10.7787 49.9279 9.86404 50.3199 8.93071 50.8519 8.12804 51.5239 7.45604 52.2146 6.76537 53.0173 6.21471 53.9319 5.80404 54.8653 5.39337 55.8546 5.18804 56.8999 5.18804zM59.4479 15.296C60.1386 14.6053 60.4839 13.7653 60.4839 12.776 60.4839 12.2907 60.3906 11.8333 60.2039 11.404 60.0173 10.9747 59.7559 10.592 59.4199 10.256 58.7106 9.58404 57.8706 9.24804 56.8999 9.24804 55.9293 9.24804 55.0986 9.59337 54.4079 10.284 53.7173 11.012 53.3719 11.852 53.3719 12.804 53.3719 13.7747 53.7266 14.6147 54.4359 15.324 55.1266 16.0147 55.9666 16.36 56.9559 16.36 57.4413 16.3413 57.8986 16.248 58.3279 16.08 58.7573 15.8933 59.1306 15.632 59.4479 15.296zM83.7554 20V12.72C83.7554 12.2533 83.7181 11.8147 83.6434 11.404 83.5688 10.9747 83.4288 10.6013 83.2234 10.284 83.0368 9.96671 82.7754 9.71471 82.4394 9.52804 82.1221 9.34137 81.7208 9.24804 81.2354 9.24804 80.7688 9.24804 80.3768 9.34137 80.0594 9.52804 79.7421 9.69604 79.4808 9.93871 79.2754 10.256 79.0888 10.5547 78.9488 10.9093 78.8554 11.32 78.7621 11.6747 78.7061 12.0573 78.6874 12.468V12.72 20H74.6834V12.72C74.6834 12.2533 74.6461 11.8147 74.5714 11.404 74.4968 10.9747 74.3568 10.6013 74.1514 10.284 73.9648 9.96671 73.7034 9.71471 73.3674 9.52804 73.0501 9.34137 72.6488 9.24804 72.1634 9.24804 71.6968 9.24804 71.3048 9.34137 70.9874 9.52804 70.6701 9.69604 70.4088 9.93871 70.2034 10.256 70.0168 10.5547 69.8768 10.9093 69.7834 11.32 69.6901 11.712 69.6341 12.1413 69.6154 12.608V20H65.6114V5.58004H69.6154V6.67204C69.8021 6.42937 70.0354 6.21471 70.3154 6.02804 70.6141 5.84137 70.9128 5.68271 71.2114 5.55204 71.5101 5.42137 71.7994 5.32804 72.0794 5.27204 72.3781 5.21604 72.6208 5.18804 72.8074 5.18804 73.1061 5.18804 73.4608 5.19737 73.8714 5.21604 74.2821 5.23471 74.7021 5.31871 75.1314 5.46804 75.5608 5.59871 75.9901 5.82271 76.4194 6.14004 76.8488 6.43871 77.2314 6.86804 77.5674 7.42804L77.5954 7.45604C77.9874 6.85871 78.3888 6.41071 78.7994 6.11204 79.2288 5.79471 79.6394 5.57071 80.0314 5.44004 80.4234 5.29071 80.7781 5.21604 81.0954 5.21604 81.4314 5.19737 81.6928 5.18804 81.8794 5.18804 82.1781 5.18804 82.5328 5.19737 82.9434 5.21604 83.3541 5.23471 83.7741 5.31871 84.2034 5.46804 84.6328 5.59871 85.0621 5.82271 85.4914 6.14004 85.9208 6.43871 86.3034 6.86804 86.6394 7.42804 86.9754 7.98804 87.2461 8.69737 87.4514 9.55604 87.6568 10.4147 87.7594 11.4693 87.7594 12.72V20H83.7554zM101.339 14.344H93.443C93.5923 14.6613 93.8257 14.988 94.143 15.324 94.8337 16.0147 95.6737 16.36 96.663 16.36 97.4283 16.3413 98.119 16.108 98.735 15.66L102.207 17.872C101.535 18.6373 100.723 19.244 99.771 19.692 98.8377 20.1213 97.811 20.336 96.691 20.336 95.6457 20.336 94.6563 20.14 93.723 19.748 92.8083 19.356 92.0057 18.824 91.315 18.152 90.6243 17.4613 90.0737 16.6587 89.663 15.744 89.271 14.8293 89.075 13.8493 89.075 12.804 89.075 11.7587 89.271 10.7787 89.663 9.86404 90.055 8.93071 90.587 8.11871 91.259 7.42804 91.931 6.73737 92.7243 6.19604 93.639 5.80404 94.5537 5.39337 95.543 5.18804 96.607 5.18804 97.6523 5.18804 98.6323 5.38404 99.547 5.77604 100.48 6.16804 101.283 6.70937 101.955 7.40004 102.646 8.07204 103.187 8.86537 103.579 9.78004 103.99 10.6947 104.195 11.6747 104.195 12.72 104.195 13.28 104.139 13.8213 104.027 14.344H101.339zM96.607 9.24804C95.6363 9.24804 94.8057 9.59337 94.115 10.284 93.7043 10.732 93.415 11.1987 93.247 11.684H100.023C99.855 11.1427 99.5563 10.6667 99.127 10.256 98.4177 9.58404 97.5777 9.24804 96.607 9.24804zM108.536 20V9.58404H105.288v-4.004H108.536V.540039H112.54V5.58004H115.9v4.004H112.54V20H108.536zM125.416 9.24804C124.166 9.26671 123.139 9.60271 122.336 10.256 121.552 10.8907 121.132 11.6747 121.076 12.608V20H117.072V5.58004H121.076V6.67204C121.45 6.16804 121.982 5.79471 122.672 5.55204 123.363 5.30937 124.278 5.18804 125.416 5.18804v4.06z" fill="#000"/></svg>